<?xml version="1.0" encoding="UTF-8"?>
<svg id="Layer_2" data-name="Layer 2" xmlns="http://www.w3.org/2000/svg" viewBox="0 0 617.16 617.16">
  <defs>
    <style>
      .cls-1 {
        fill: #fff6cf;
      }

      .cls-1, .cls-2, .cls-3, .cls-4, .cls-5 {
        stroke-width: 0px;
      }

      .cls-2 {
        fill: #ffd400;
      }

      .cls-3 {
        fill: #b7b7b7;
      }

      .cls-4 {
        fill: red;
      }

      .cls-5 {
        fill: #d8d8d8;
      }
    </style>
  </defs>
  <g id="Layer_1-2" data-name="Layer 1">
    <g>
      <g>
        <circle class="cls-1" cx="308.58" cy="308.58" r="210.5"/>
        <path class="cls-2" d="M308.58,103.08c27.75,0,54.66,5.43,79.99,16.15,24.47,10.35,46.45,25.17,65.32,44.04,18.88,18.88,33.69,40.85,44.04,65.32,10.71,25.33,16.15,52.24,16.15,79.99s-5.43,54.66-16.15,79.99c-10.35,24.47-25.17,46.45-44.04,65.32-18.88,18.88-40.85,33.69-65.32,44.04-25.33,10.71-52.24,16.15-79.99,16.15s-54.66-5.43-79.99-16.15c-24.47-10.35-46.45-25.17-65.32-44.04-18.88-18.88-33.69-40.85-44.04-65.32-10.71-25.33-16.15-52.24-16.15-79.99s5.43-54.66,16.15-79.99c10.35-24.47,25.17-46.45,44.04-65.32,18.88-18.88,40.85-33.69,65.32-44.04,25.33-10.71,52.24-16.15,79.99-16.15M308.58,93.08c-119.02,0-215.5,96.48-215.5,215.5s96.48,215.5,215.5,215.5,215.5-96.48,215.5-215.5-96.48-215.5-215.5-215.5h0Z"/>
      </g>
      <path class="cls-5" d="M374.13,447.95l-16.4-11.02-61.9-102.99c-6.87-11.43-2.48-26.29,9.49-32.15h0s0,0,0,0c11.97-5.87,26.4-.23,31.22,12.2l43.45,112.03-1.34,19.71c-.15,2.23-2.66,3.46-4.52,2.22Z"/>
      <g>
        <path class="cls-5" d="M231.08,141.37l21.13,14.2,79.79,132.75c8.85,14.73,3.2,33.88-12.23,41.44h0s0,0,0,0c-15.43,7.56-34.03.29-40.25-15.73l-56.01-144.4,1.73-25.4c.2-2.88,3.43-4.46,5.83-2.86Z"/>
        <path class="cls-4" d="M236.65,157.51l13.09,15.69,65.64,122.5c7.28,13.59,8.49,27.74,2.61,30.63h0s0,0,0,0c-5.88,2.88-16.32-6.75-22.6-20.83l-56.58-126.94-4.38-19.95c-.5-2.26.74-2.86,2.22-1.09Z"/>
        <circle class="cls-3" cx="309.1" cy="307.96" r="24.4"/>
        <ellipse class="cls-3" cx="308.38" cy="306.7" rx="9.3" ry="21.96" transform="translate(-103.49 166.98) rotate(-26.1)"/>
      </g>
      <g>
        <path class="cls-2" d="M153.01,125.77c-2.76,0-5.5-1.2-7.37-3.5l-35-43c-3.31-4.07-2.7-10.05,1.37-13.36,4.07-3.31,10.05-2.7,13.36,1.37l35,43c3.31,4.07,2.7,10.05-1.37,13.36-1.76,1.43-3.88,2.13-5.99,2.13Z"/>
        <path class="cls-2" d="M77.69,229.32c-1.12,0-2.27-.2-3.38-.62l-51.81-19.74c-4.9-1.87-7.36-7.36-5.5-12.26,1.87-4.9,7.35-7.37,12.26-5.5l51.81,19.74c4.9,1.87,7.36,7.36,5.5,12.26-1.44,3.79-5.05,6.12-8.88,6.12Z"/>
        <path class="cls-2" d="M9.49,365.47c-4.58,0-8.62-3.32-9.37-7.99-.83-5.18,2.69-10.06,7.87-10.89l54.74-8.81c5.18-.84,10.06,2.69,10.89,7.87.83,5.18-2.69,10.06-7.87,10.89l-54.74,8.81c-.51.08-1.02.12-1.52.12Z"/>
        <path class="cls-2" d="M73.27,508.66c-2.76,0-5.5-1.2-7.37-3.5-3.31-4.07-2.7-10.05,1.37-13.37l43-35c4.07-3.31,10.05-2.7,13.36,1.37,3.31,4.07,2.7,10.05-1.37,13.37l-43,35c-1.76,1.43-3.88,2.13-5.99,2.13Z"/>
        <path class="cls-2" d="M200.08,600.79c-1.12,0-2.27-.2-3.38-.62-4.9-1.87-7.36-7.36-5.5-12.26l19.74-51.81c1.87-4.9,7.36-7.36,12.26-5.5,4.9,1.87,7.36,7.36,5.5,12.26l-19.74,51.81c-1.44,3.79-5.05,6.12-8.88,6.12Z"/>
        <path class="cls-2" d="M355.96,617.16c-4.58,0-8.62-3.32-9.37-7.99l-8.81-54.74c-.83-5.18,2.69-10.06,7.87-10.89,5.18-.84,10.06,2.69,10.89,7.87l8.81,54.74c.83,5.18-2.69,10.06-7.87,10.89-.51.08-1.02.12-1.52.12Z"/>
        <path class="cls-2" d="M499.17,553.4c-2.76,0-5.5-1.2-7.37-3.5l-35-43c-3.31-4.07-2.7-10.05,1.37-13.37,4.07-3.31,10.05-2.7,13.37,1.37l35,43c3.31,4.07,2.7,10.05-1.37,13.37-1.76,1.43-3.88,2.13-5.99,2.13Z"/>
        <path class="cls-2" d="M591.28,426.58c-1.12,0-2.27-.2-3.38-.62l-51.81-19.74c-4.9-1.87-7.36-7.36-5.5-12.26,1.87-4.9,7.35-7.36,12.26-5.5l51.81,19.74c4.9,1.87,7.36,7.36,5.5,12.26-1.44,3.79-5.05,6.12-8.88,6.12Z"/>
        <path class="cls-2" d="M552.91,279.5c-4.58,0-8.62-3.32-9.37-7.99-.83-5.18,2.69-10.06,7.87-10.89l54.74-8.81c5.18-.83,10.06,2.69,10.89,7.87.83,5.18-2.69,10.06-7.87,10.89l-54.74,8.81c-.51.08-1.02.12-1.52.12Z"/>
        <path class="cls-2" d="M500.9,162.5c-2.76,0-5.5-1.2-7.37-3.5-3.31-4.07-2.7-10.05,1.37-13.36l43-35c4.07-3.31,10.05-2.7,13.37,1.37,3.31,4.07,2.7,10.05-1.37,13.36l-43,35c-1.76,1.43-3.88,2.13-5.99,2.13Z"/>
        <path class="cls-2" d="M397.34,87.19c-1.12,0-2.27-.2-3.38-.62-4.9-1.87-7.36-7.36-5.5-12.26l19.74-51.81c1.87-4.9,7.35-7.37,12.26-5.5,4.9,1.87,7.36,7.36,5.5,12.26l-19.74,51.81c-1.44,3.79-5.05,6.12-8.88,6.12Z"/>
        <path class="cls-2" d="M269.99,73.74c-4.58,0-8.62-3.32-9.37-7.99l-8.81-54.74c-.83-5.18,2.69-10.06,7.87-10.89,5.18-.83,10.06,2.69,10.89,7.87l8.81,54.74c.83,5.18-2.69,10.06-7.87,10.89-.51.08-1.02.12-1.52.12Z"/>
      </g>
    </g>
  </g>
</svg>