<?xml version="1.0" encoding="UTF-8"?>
<svg id="Layer_2" data-name="Layer 2" xmlns="http://www.w3.org/2000/svg" viewBox="0 0 1717.3 2232.08">
  <defs>
    <style>
      .cls-1 {
        fill: #fff68a;
        stroke-width: 0px;
      }
    </style>
  </defs>
  <g id="Layer_1-2" data-name="Layer 1">
    <g>
      <path class="cls-1" d="M11.47,315.31c3.51,2.24,6.96,4.59,10.38,6.97,3.42,2.38,6.81,4.81,10.18,7.28,6.73,4.93,13.36,9.99,19.9,15.18l-1.09,1.33c-6.36-5.37-12.78-10.67-19.33-15.82-3.27-2.58-6.57-5.12-9.9-7.62-3.34-2.49-6.7-4.96-10.13-7.32Z"/>
      <path class="cls-1" d="M75.08,363.89c12.65,10.89,24.97,22.19,36.94,33.85l-3.04,3.02c-11.53-11.98-23.43-23.61-35.68-34.87l1.78-2.01Z"/>
      <path class="cls-1" d="M133.18,419.12c11.55,12.09,22.69,24.59,33.46,37.4l-5.21,4.25c-10.29-13.02-21.03-25.7-32.1-38.09l3.85-3.56Z"/>
      <path class="cls-1" d="M185.57,479.97c10.27,13.23,20.12,26.81,29.5,40.71l-7.57,4.95c-8.87-13.99-18.21-27.69-28-41.09l6.07-4.57Z"/>
      <path class="cls-1" d="M231.44,546.06c8.8,14.29,17.11,28.9,24.87,43.82l-10.15,5.1c-7.2-14.88-14.96-29.5-23.23-43.84l8.51-5.07Z"/>
      <path class="cls-1" d="M269.65,617.03c7.07,15.27,13.56,30.81,19.42,46.61l-12.72,4.53c-5.33-15.6-11.28-31.01-17.82-46.17l11.11-4.97Z"/>
      <path class="cls-1" d="M298.95,692.32c5.1,16.07,9.57,32.36,13.33,48.82l-15.25,3.29c-3.28-16.12-7.19-32.13-11.76-47.96l13.68-4.15Z"/>
      <path class="cls-1" d="M318.32,770.93c2.94,16.64,5.19,33.4,6.75,50.24l-17.53,1.4c-1.1-16.39-2.89-32.74-5.35-49l16.13-2.65Z"/>
      <path class="cls-1" d="M327.11,851.55c.36,8.41.55,16.83.57,25.25,0,8.42-.15,16.84-.53,25.26l-19.37-.97c.44-8.15.79-16.31.96-24.48.19-8.17.21-16.34.06-24.5l18.32-.56Z"/>
      <path class="cls-1" d="M324.26,932.82c-2.48,17.02-6.48,33.87-11.91,50.23l-18.13-5.96c4.98-15.31,8.48-31.07,10.73-47.05l19.3,2.77Z"/>
      <path class="cls-1" d="M301.09,1011.92c-7.06,15.69-15.44,30.7-24.63,45.05l-16-10.24c8.78-13.72,16.69-27.9,23.3-42.61l17.33,7.8Z"/>
      <path class="cls-1" d="M259.18,1082.18c-9.96,13.68-20.39,26.88-30.9,39.9l-14.79-11.93c10.42-12.92,20.66-25.88,30.32-39.15l15.36,11.18Z"/>
      <polygon class="cls-1" points="209.35 1145.4 178.42 1184.34 163.34 1172.77 194.6 1133.42 209.35 1145.4"/>
      <path class="cls-1" d="M160.7,1208.17c-9.61,13.38-18.81,27.03-27.47,41l-16.15-10.02c8.91-14.36,18.35-28.38,28.18-42.07l15.43,11.08Z"/>
      <path class="cls-1" d="M118.22,1274.63c-8.01,14.33-15.46,28.98-22.33,43.89l-17.26-7.95c7.08-15.36,14.75-30.45,23-45.22l16.59,9.27Z"/>
      <path class="cls-1" d="M84.14,1345.66c-6.18,15.22-11.79,30.68-16.87,46.33l-18.07-5.87c5.21-16.06,10.98-31.95,17.34-47.61l17.6,7.15Z"/>
      <path class="cls-1" d="M58.61,1420.36c-4.55,15.86-8.67,31.85-12.41,47.93l-18.51-4.3c3.81-16.38,8.02-32.68,12.66-48.87l18.26,5.24Z"/>
      <path class="cls-1" d="M39.87,1497.34c-3.28,16.19-6.19,32.46-8.72,48.78l-18.78-2.91c2.58-16.61,5.53-33.17,8.87-49.65l18.62,3.78Z"/>
      <path class="cls-1" d="M27.01,1575.57c-2.07,16.39-3.76,32.82-5.05,49.28l-18.94-1.48c1.31-16.77,3.03-33.51,5.14-50.19l18.85,2.38Z"/>
      <path class="cls-1" d="M20.09,1654.51c-.79,16.49-1.16,32.99-1.07,49.48l-19,.1c-.09-16.84.29-33.68,1.1-50.49l18.98.91Z"/>
      <path class="cls-1" d="M19.67,1733.65c.65,16.47,1.79,32.91,3.47,49.28l-18.9,1.93c-1.72-16.79-2.88-33.62-3.55-50.46l18.99-.75Z"/>
      <path class="cls-1" d="M26.75,1812.32c2.34,16.28,5.26,32.46,8.82,48.48l-18.55,4.12c-3.67-16.52-6.67-33.17-9.08-49.89l18.81-2.71Z"/>
      <path class="cls-1" d="M42.68,1889.46c4.35,15.8,9.38,31.41,15.17,46.71l-17.77,6.72c-6-15.89-11.22-32.05-15.71-48.38l18.32-5.04Z"/>
      <path class="cls-1" d="M69.07,1963.34c6.7,14.89,14.19,29.41,22.5,43.42l-16.34,9.69c-8.7-14.66-16.51-29.81-23.49-45.32l17.33-7.8Z"/>
      <path class="cls-1" d="M107.43,2031.41c9.3,13.35,19.43,26.11,30.36,38.14l-14.06,12.77c-11.49-12.65-22.13-26.05-31.88-40.05l15.59-10.86Z"/>
      <path class="cls-1" d="M158.29,2090.38c5.92,5.56,12.03,10.91,18.31,16.06,3.15,2.56,6.3,5.12,9.59,7.52l9.76,7.3-11.06,15.45-10.26-7.67c-3.45-2.52-6.77-5.21-10.08-7.91-6.61-5.42-13.04-11.05-19.27-16.9l13-13.86Z"/>
      <path class="cls-1" d="M220.4,2137.44c13.91,8.51,28.32,16.24,43.09,23.23l-8.13,17.17c-15.35-7.27-30.36-15.31-44.88-24.2l9.92-16.21Z"/>
      <path class="cls-1" d="M290.46,2172.48c15.18,6.13,30.66,11.54,46.35,16.27l-5.48,18.19c-16.23-4.89-32.25-10.49-47.98-16.84l7.11-17.62Z"/>
      <path class="cls-1" d="M365.27,2196.52c15.92,3.91,32.02,7.14,48.22,9.68l-2.95,18.77c-16.73-2.63-33.35-5.96-49.8-10l4.53-18.45Z"/>
      <path class="cls-1" d="M442.76,2210.05c16.31,1.72,32.69,2.74,49.07,3.04l-.35,19c-16.95-.31-33.87-1.37-50.72-3.14l1.99-18.9Z"/>
      <path class="cls-1" d="M521.31,2212.83c16.36-.59,32.69-1.94,48.89-4.1l2.51,18.83c-16.84,2.25-33.77,3.64-50.72,4.26l-.69-18.99Z"/>
      <path class="cls-1" d="M599.21,2203.93c16.01-3.17,31.84-7.21,47.33-12.19l5.81,18.09c-16.24,5.22-32.77,9.43-49.46,12.74l-3.69-18.64Z"/>
      <path class="cls-1" d="M674.04,2181.74c15.04-6.15,29.64-13.29,43.59-21.49l9.63,16.38c-14.79,8.69-30.21,16.23-46.03,22.7l-7.19-17.59Z"/>
      <path class="cls-1" d="M741.99,2144.34c13.08-9.47,25.35-20.01,36.57-31.55l13.62,13.24c-12.01,12.36-25.13,23.62-39.05,33.69l-11.14-15.39Z"/>
      <path class="cls-1" d="M797.58,2090.97c4.94-6.34,9.6-12.92,13.94-19.69,2.2-3.43,4.19-6.69,6.05-10.14,1.86-3.42,3.56-6.91,5.09-10.46l17.45,7.51c-1.77,4.1-3.72,8.11-5.84,12.01-2.1,3.89-4.45,7.75-6.75,11.33-4.66,7.26-9.65,14.31-14.95,21.11l-14.99-11.68Z"/>
      <path class="cls-1" d="M830.58,2024.13c2.67-15.22,2.27-31-.18-46.69l18.78-2.91c1.33,8.62,2.15,17.4,2.23,26.26.09,8.86-.57,17.79-2.11,26.61l-18.72-3.26Z"/>
      <path class="cls-1" d="M824.18,1949.24c-4.34-15.61-9.86-31.1-15.64-46.61l17.8-6.64c5.86,15.71,11.55,31.66,16.15,48.17l-18.31,5.08Z"/>
      <path class="cls-1" d="M797.94,1874.62c-5.92-15.64-11.74-31.45-16.89-47.58l18.1-5.79c4.99,15.62,10.69,31.11,16.57,46.64l-17.77,6.72Z"/>
      <path class="cls-1" d="M772.58,1797.65c-4.18-16.52-7.37-33.41-9.12-50.52l18.9-1.93c1.64,16.06,4.65,32.01,8.64,47.8l-18.42,4.66Z"/>
      <path class="cls-1" d="M761.92,1716.17c.06-17.25,1.74-34.51,5.01-51.45l18.66,3.59c-3.04,15.79-4.6,31.85-4.66,47.93l-19-.07Z"/>
      <path class="cls-1" d="M774.42,1634.64c5.03-16.43,11.44-32.49,19.3-47.87l16.91,8.66c-7.32,14.31-13.32,29.33-18.05,44.77l-18.17-5.56Z"/>
      <path class="cls-1" d="M809.44,1559.96c9.57-14.38,20.54-27.81,32.53-40.15l13.63,13.24c-11.24,11.56-21.44,24.07-30.34,37.44l-15.81-10.53Z"/>
      <path class="cls-1" d="M864.54,1498.73c13.04-11.1,26.82-21.19,40.95-30.57l10.51,15.83c-13.64,9.06-26.8,18.71-39.14,29.22l-12.31-14.47Z"/>
      <path class="cls-1" d="M931.25,1451.95c14.46-8.67,29.11-16.86,43.73-24.93l9.19,16.63c-14.56,8.04-29.01,16.13-43.14,24.6l-9.77-16.3Z"/>
      <path class="cls-1" d="M1001.21,1412.52c14.51-8.07,28.87-16.26,42.85-24.9l10,16.16c-14.37,8.89-28.98,17.21-43.6,25.35l-9.24-16.6Z"/>
      <path class="cls-1" d="M1068.74,1371.49c13.41-9.32,26.27-19.31,38.21-30.21l12.81,14.03c-12.68,11.58-26.22,22.08-40.17,31.78l-10.84-15.6Z"/>
      <path class="cls-1" d="M1127.37,1320.67c10.71-12,20.27-24.97,28.46-38.77l16.34,9.7c-8.82,14.87-19.14,28.86-30.62,41.72l-14.18-12.65Z"/>
      <path class="cls-1" d="M1169.09,1256.24l4.61-11.15c1.57-3.7,2.88-7.51,4.2-11.31,2.59-7.61,4.82-15.33,6.66-23.14l18.49,4.36c-1.98,8.42-4.39,16.73-7.16,24.9-1.41,4.08-2.82,8.15-4.49,12.13l-4.94,11.96-17.35-7.74Z"/>
      <path class="cls-1" d="M1189.46,1182.24c1.76-15.93,1.86-32.03.46-48.05l18.93-1.66c1.51,17.18,1.4,34.58-.5,51.79l-18.89-2.08Z"/>
      <path class="cls-1" d="M1185.86,1105.47c-3.06-15.87-7.4-31.56-12.63-47.01l18-6.09c5.45,16.12,10.03,32.63,13.29,49.5l-18.66,3.6Z"/>
      <path class="cls-1" d="M1162.94,1030.88c-6.16-15.2-12.98-30.2-20.16-45.08l17.11-8.26c7.3,15.14,14.29,30.5,20.66,46.2l-17.61,7.14Z"/>
      <polygon class="cls-1" points="1129.52 959.11 1106.56 914.8 1123.41 906.02 1146.46 950.5 1129.52 959.11"/>
      <path class="cls-1" d="M1092.74,888.09c-7.62-14.9-15.09-29.93-22.21-45.17l17.22-8.04c6.98,14.96,14.35,29.79,21.91,44.56l-16.92,8.65Z"/>
      <path class="cls-1" d="M1058.17,815.22c-6.6-15.53-12.71-31.33-18.07-47.43l18.03-6.01c5.17,15.53,11.09,30.85,17.53,46l-17.49,7.43Z"/>
      <path class="cls-1" d="M1031.3,738.51c-4.38-16.44-7.86-33.17-10.23-50.09l18.82-2.63c2.25,16.09,5.57,32.06,9.77,47.83l-18.36,4.89Z"/>
      <path class="cls-1" d="M1018.04,657.81c-.98-17.08-.76-34.25.7-51.31l18.93,1.62c-1.38,16.16-1.59,32.4-.66,48.6l-18.97,1.09Z"/>
      <path class="cls-1" d="M1022.67,575.95c2.91-16.87,7.02-33.52,12.22-49.8l18.1,5.78c-4.94,15.47-8.84,31.26-11.6,47.24l-18.72-3.23Z"/>
      <path class="cls-1" d="M1045.39,497.27c6.45-15.8,13.87-31.17,22.11-46.06l16.63,9.2c-7.9,14.28-14.99,28.98-21.14,44.04l-17.59-7.17Z"/>
      <path class="cls-1" d="M1083.14,424.92c9.12-14.33,18.86-28.24,29.22-41.64l15.33,11.92c-10.1,12.91-19.7,26.19-28.52,39.96l-16.04-10.24Z"/>
      <path class="cls-1" d="M1131.69,359.72c11.12-12.75,22.79-24.97,34.79-36.82l12.92,12.8c-11.44,11.84-22.46,24.07-33.06,36.61l-14.66-12.59Z"/>
      <path class="cls-1" d="M1188.5,302.03c12.43-11.36,25.18-22.34,38.18-32.99l10.41,12.4c-12.53,10.79-24.77,21.88-36.66,33.31l-11.92-12.72Z"/>
      <path class="cls-1" d="M1250.35,250.25c13.29-10.25,26.83-20.17,40.53-29.82l8.29,11.46c-13.3,9.89-26.39,20.05-39.24,30.47l-9.58-12.11Z"/>
      <polygon class="cls-1" points="1315.75 203.37 1357.97 176.17 1364.45 186.31 1323.32 214.36 1315.75 203.37"/>
      <polygon class="cls-1" points="1383.71 160.55 1427.21 135.58 1432.08 144.07 1389.57 170.11 1383.71 160.55"/>
      <polygon class="cls-1" points="1453.61 121.18 1498.05 98.06 1501.54 104.72 1457.94 129 1453.61 121.18"/>
      <polygon class="cls-1" points="1524.96 84.68 1570.16 63.15 1572.42 67.85 1527.97 90.62 1524.96 84.68"/>
      <polygon class="cls-1" points="1597.47 50.69 1643.29 30.57 1644.4 33.06 1599.29 54.56 1597.47 50.69"/>
      <polygon class="cls-1" points="1670.93 18.88 1717.24 0 1717.3 .13 1671.64 20.52 1670.93 18.88"/>
    </g>
  </g>
</svg>