<?xml version="1.0" encoding="UTF-8"?>
<svg id="Layer_2" data-name="Layer 2" xmlns="http://www.w3.org/2000/svg" viewBox="0 0 632.52 707.52">
  <defs>
    <style>
      .cls-1 {
        stroke: #8cd9f4;
        stroke-miterlimit: 10;
        stroke-width: 10px;
      }

      .cls-1, .cls-2 {
        fill: #edeff9;
      }

      .cls-3 {
        fill: #8cd9f4;
      }

      .cls-3, .cls-2 {
        stroke-width: 0px;
      }
    </style>
  </defs>
  <g id="Layer_1-2" data-name="Layer 1">
    <g>
      <g>
        <circle class="cls-2" cx="285.5" cy="380.02" r="210.5"/>
        <path class="cls-3" d="M285.5,174.52c27.75,0,54.66,5.43,79.99,16.15,24.47,10.35,46.45,25.17,65.32,44.04s33.69,40.85,44.04,65.32c10.71,25.33,16.15,52.24,16.15,79.99s-5.43,54.66-16.15,79.99c-10.35,24.47-25.17,46.45-44.04,65.32-18.88,18.88-40.85,33.69-65.32,44.04-25.33,10.71-52.24,16.15-79.99,16.15s-54.66-5.43-79.99-16.15c-24.47-10.35-46.45-25.17-65.32-44.04-18.88-18.88-33.69-40.85-44.04-65.32-10.71-25.33-16.15-52.24-16.15-79.99s5.43-54.66,16.15-79.99c10.35-24.47,25.17-46.45,44.04-65.32,18.88-18.88,40.85-33.69,65.32-44.04,25.33-10.71,52.24-16.15,79.99-16.15M285.5,164.52c-119.02,0-215.5,96.48-215.5,215.5s96.48,215.5,215.5,215.5,215.5-96.48,215.5-215.5-96.48-215.5-215.5-215.5h0Z"/>
      </g>
      <path class="cls-1" d="M506.22,213.17l-28.58-52.26c-1.39-2.54-3.48-4.63-6.02-6.02l-52.26-28.58c-10.5-5.74-10.5-20.82,0-26.57l52.26-28.58c2.54-1.39,4.63-3.48,6.02-6.02l28.58-52.26c5.74-10.5,20.82-10.5,26.57,0l28.58,52.26c1.39,2.54,3.48,4.63,6.02,6.02l52.26,28.58c10.5,5.74,10.5,20.82,0,26.57l-52.26,28.58c-2.54,1.39-4.63,3.48-6.02,6.02l-28.58,52.26c-5.74,10.5-20.82,10.5-26.57,0Z"/>
      <path class="cls-1" d="M121.99,698.07l-16.16-29.55c-.79-1.44-1.97-2.62-3.4-3.4l-29.55-16.16c-5.94-3.25-5.94-11.77,0-15.02l29.55-16.16c1.44-.79,2.62-1.97,3.4-3.4l16.16-29.55c3.25-5.94,11.77-5.94,15.02,0l16.16,29.55c.79,1.44,1.97,2.62,3.4,3.4l29.55,16.16c5.94,3.25,5.94,11.77,0,15.02l-29.55,16.16c-1.44.79-2.62,1.97-3.4,3.4l-16.16,29.55c-3.25,5.94-11.77,5.94-15.02,0Z"/>
      <path class="cls-1" d="M42.09,577.44l-11.19-20.46c-.54-.99-1.36-1.81-2.36-2.36l-20.46-11.19c-4.11-2.25-4.11-8.15,0-10.4l20.46-11.19c.99-.54,1.81-1.36,2.36-2.36l11.19-20.46c2.25-4.11,8.15-4.11,10.4,0l11.19,20.46c.54.99,1.36,1.81,2.36,2.36l20.46,11.19c4.11,2.25,4.11,8.15,0,10.4l-20.46,11.19c-.99.54-1.81,1.36-2.36,2.36l-11.19,20.46c-2.25,4.11-8.15,4.11-10.4,0Z"/>
    </g>
  </g>
</svg>