<?xml version="1.0" encoding="UTF-8"?>
<svg id="Layer_2" data-name="Layer 2" xmlns="http://www.w3.org/2000/svg" viewBox="0 0 903 792">
  <defs>
    <style>
      .cls-1 {
        fill: #b1d8e5;
      }

      .cls-1, .cls-2, .cls-3 {
        stroke-width: 0px;
      }

      .cls-2 {
        fill: #57d9f7;
      }

      .cls-3 {
        fill: #9dbdc6;
      }
    </style>
  </defs>
  <g id="Layer_1-2" data-name="Layer 1">
    <g>
      <g>
        <ellipse class="cls-1" cx="622" cy="254.5" rx="281" ry="194.5"/>
        <ellipse class="cls-1" cx="281" cy="254.5" rx="281" ry="194.5"/>
        <ellipse class="cls-1" cx="478" cy="194.5" rx="281" ry="194.5"/>
        <ellipse class="cls-3" cx="309" cy="275.5" rx="281" ry="194.5"/>
        <ellipse class="cls-3" cx="478" cy="226.5" rx="281" ry="194.5"/>
        <ellipse class="cls-3" cx="622" cy="275.5" rx="281" ry="194.5"/>
      </g>
      <g>
        <path class="cls-2" d="M186.05,520.07c2.98-19.17,30.58-19.17,33.56,0h0s13.74,88.34,13.74,88.34c1.6,10.3-6.36,19.59-16.78,19.59h-27.47c-10.42,0-18.38-9.3-16.78-19.59l13.74-88.34h0Z"/>
        <path class="cls-2" d="M434.72,520.07c2.98-19.17,30.58-19.17,33.56,0h0s13.74,88.34,13.74,88.34c1.6,10.3-6.36,19.59-16.78,19.59h-27.47c-10.42,0-18.38-9.3-16.78-19.59l13.74-88.34h0Z"/>
        <path class="cls-2" d="M683.38,520.07c2.98-19.17,30.58-19.17,33.56,0h0s13.74,88.34,13.74,88.34c1.6,10.3-6.36,19.59-16.78,19.59h-27.47c-10.42,0-18.38-9.3-16.78-19.59l13.74-88.34h0Z"/>
        <path class="cls-2" d="M533.38,684.07c2.98-19.17,30.58-19.17,33.56,0h0s13.74,88.34,13.74,88.34c1.6,10.3-6.36,19.59-16.78,19.59h-27.47c-10.42,0-18.38-9.3-16.78-19.59l13.74-88.34h0Z"/>
        <path class="cls-2" d="M322.38,684.07c2.98-19.17,30.58-19.17,33.56,0h0s13.74,88.34,13.74,88.34c1.6,10.3-6.36,19.59-16.78,19.59h-27.47c-10.42,0-18.38-9.3-16.78-19.59l13.74-88.34h0Z"/>
      </g>
    </g>
  </g>
</svg>